<?xml version="1.0" encoding="UTF-8" standalone="no"?>
<!-- Created with Inkscape (http://www.inkscape.org/) -->

<svg
   width="28.452778mm"
   height="28.452778mm"
   viewBox="0 0 28.452778 28.452778"
   version="1.1"
   id="svg5"
   xml:space="preserve"
   inkscape:version="1.2.2 (b0a8486541, 2022-12-01)"
   sodipodi:docname="logo.svg"
   xmlns:inkscape="http://www.inkscape.org/namespaces/inkscape"
   xmlns:sodipodi="http://sodipodi.sourceforge.net/DTD/sodipodi-0.dtd"
   xmlns:xlink="http://www.w3.org/1999/xlink"
   xmlns="http://www.w3.org/2000/svg"
   xmlns:svg="http://www.w3.org/2000/svg"><sodipodi:namedview
     id="namedview7"
     pagecolor="#ffffff"
     bordercolor="#000000"
     borderopacity="0.25"
     inkscape:showpageshadow="2"
     inkscape:pageopacity="0.0"
     inkscape:pagecheckerboard="0"
     inkscape:deskcolor="#d1d1d1"
     inkscape:document-units="mm"
     showgrid="false"
     inkscape:zoom="3.0859147"
     inkscape:cx="21.3875"
     inkscape:cy="43.747159"
     inkscape:window-width="1920"
     inkscape:window-height="1011"
     inkscape:window-x="1680"
     inkscape:window-y="32"
     inkscape:window-maximized="1"
     inkscape:current-layer="g15" /><defs
     id="defs2"><linearGradient
       id="a"><stop
         stop-color="#d40000"
         offset="0"
         id="stop2155" /><stop
         stop-color="#f00"
         offset=".19582"
         id="stop2157" /><stop
         stop-color="#ff8080"
         offset=".35294"
         id="stop2159" /><stop
         stop-color="#f55"
         offset=".55882"
         id="stop2161" /><stop
         stop-color="#f00"
         offset=".73529"
         id="stop2163" /><stop
         stop-color="#a00"
         offset="1"
         id="stop2165" /></linearGradient><linearGradient
       id="e"
       x1="9.2649002"
       x2="101.31"
       y1="60.057999"
       y2="105.18"
       gradientUnits="userSpaceOnUse"><stop
         stop-color="#d40000"
         offset="0"
         id="stop2168" /><stop
         stop-color="#f00"
         offset=".05495"
         id="stop2170" /><stop
         stop-color="#ff8080"
         offset=".24964"
         id="stop2172" /><stop
         stop-color="#f55"
         offset=".43029"
         id="stop2174" /><stop
         stop-color="#f00"
         offset=".7009"
         id="stop2176" /><stop
         stop-color="#a00"
         offset="1"
         id="stop2178" /></linearGradient><linearGradient
       id="d"
       x1="21.367001"
       x2="67.179001"
       y1="108.61"
       y2="112.61"
       gradientTransform="matrix(1.4384,1.4384,-1.967,1.967,186.6,695.47)"
       gradientUnits="userSpaceOnUse"><stop
         stop-color="#999"
         offset="0"
         id="stop2181" /><stop
         stop-color="#e6e6e6"
         offset=".38633"
         id="stop2183" /><stop
         stop-color="#989898"
         offset=".5635"
         id="stop2185" /><stop
         stop-color="#333"
         offset=".71704"
         id="stop2187" /><stop
         stop-color="#999"
         offset="1"
         id="stop2189" /></linearGradient><linearGradient
       id="c"
       x1="58.492001"
       x2="65.867996"
       gradientTransform="matrix(1.4384,1.4384,-1.967,1.967,186.6,695.47)"
       gradientUnits="userSpaceOnUse"
       spreadMethod="reflect"><stop
         stop-color="#f9f9f9"
         offset="0"
         id="stop2192" /><stop
         stop-color="#fff"
         stop-opacity="0"
         offset="1"
         id="stop2194" /></linearGradient><linearGradient
       id="g"
       x1="43"
       x2="77"
       gradientTransform="matrix(1.068,1.068,-1.068,1.068,94.083,832.11)"
       gradientUnits="userSpaceOnUse"
       xlink:href="#a" /><linearGradient
       id="f"
       x1="28.518999"
       x2="77.57"
       y1="55.701"
       y2="88.017998"
       gradientTransform="matrix(1.184,1.184,-1.0162,1.0162,125.21,786.04)"
       gradientUnits="userSpaceOnUse"
       xlink:href="#a" /><radialGradient
       id="b"
       cx="59.554001"
       cy="84.077003"
       r="40.637001"
       gradientTransform="matrix(1,0,0,0.53448,0,39.139)"
       gradientUnits="userSpaceOnUse"><stop
         stop-color="#800000"
         offset="0"
         id="stop2199" /><stop
         stop-color="#f00"
         offset=".54349"
         id="stop2201" /><stop
         stop-color="#f55"
         offset="1"
         id="stop2203" /></radialGradient></defs><g
     inkscape:label="Ebene 1"
     inkscape:groupmode="layer"
     id="layer1"
     transform="translate(-70.886612,-61.895299)"><g
       transform="matrix(0.03204719,0,0,0.03204719,69.089406,58.420103)"
       id="g15"><circle
         cx="500"
         cy="552.35999"
         r="443.92001"
         fill="#409fe2"
         id="circle9"
         style="fill:#14b8a5;fill-opacity:1" /><path
         d="m 481.87925,248.62574 a 30,30 0 0 0 -30,30 30,30 0 0 0 0.0859,2.2226 c -96.702,14.445 -171.46,97.794 -171.46,198.02 v 159.87 l -46.455,44.461 a 30.003,30.003 0 0 0 20.742,51.674 h 454.18 a 30.003,30.003 0 0 0 20.738,-51.678 l -46.471,-44.461 v -159.87 c 0,-100.22 -74.767,-183.57 -171.47,-198.02 a 30,30 0 0 0 0.11133,-2.2226 30,30 0 0 0 -30,-30 z m -0.01,90.002 c 78.538,2.8e-4 141.37,62.539 141.37,140.24 v 172.68 a 30.003,30.003 0 0 0 9.2598,21.678 l 1.7188,1.6445 h -304.7 l 1.7226,-1.6484 a 30.003,30.003 0 0 0 9.2559,-21.674 v -172.68 c 0,-77.698 62.831,-140.24 141.37,-140.24 z m -59.99,406.24 a 60,60 0 0 0 60,60 60,60 0 0 0 60,-60 z"
         color="#000000"
         color-rendering="auto"
         fill="#e4ff1e"
         image-rendering="auto"
         shape-rendering="auto"
         solid-color="#000000"
         style="text-indent:0;text-decoration-line:none;text-decoration-style:solid;text-decoration-color:#000000;text-transform:none;white-space:normal;isolation:auto;mix-blend-mode:normal"
         id="path13" /><g
         transform="matrix(2.900923,0,0,3.0970071,346.82647,-2419.7045)"
         id="g2220"><path
           d="m 88.742,943.26 -80.15,98.85 101.3,-77.208 z"
           fill="url(#d)"
           id="path2208"
           style="fill:url(#d)" /><path
           d="m 88.742,943.26 -80.15,98.85 101.3,-77.208 z"
           fill="url(#c)"
           opacity="0.85202"
           id="path2210"
           style="fill:url(#c)" /><path
           transform="matrix(0.73612,0.73612,-0.73612,0.73612,84.075,881.65)"
           d="m 100.19,84.077 c 0,11.996 -18.194,21.72 -40.637,21.72 -22.443,0 -40.637,-9.7243 -40.637,-21.72 0,-11.9957 18.194,-21.72 40.637,-21.72 22.443,0 40.637,9.7243 40.637,21.72 z"
           fill="url(#b)"
           fill-rule="evenodd"
           id="path2212"
           style="fill:url(#b)" /><path
           d="m 139.62,957.45 c -5.8986,5.8986 -20.244,1.1168 -32.041,-10.68 C 95.782,934.9732 91,920.628 96.899,914.729 c 5.899,-5.899 20.244,-1.1168 32.041,10.68 11.797,11.7968 16.579,26.142 10.68,32.041 z"
           fill="url(#f)"
           fill-rule="evenodd"
           id="path2214"
           style="fill:url(#f)" /><path
           d="M 54.179,968.13 96.9,914.728 c 0,0 -5.0064,4.0719 -1.1348,14.352 2.3363,5.8074 4.3389,9.9461 11.815,17.689 0,0 7.3844,7.7849 16.614,11.186 5.0002,1.8425 11.674,3.2473 15.427,-0.50562 l -53.402,42.72102 c 0,0 -10.68,10.68 -26.701,-5.34012 -16.021,-16.0201 -5.3402,-26.701 -5.3402,-26.701 z"
           fill="url(#g)"
           id="path2216"
           style="fill:url(#g)" /><path
           transform="matrix(0.59474,0.59474,-0.59474,0.59474,132.94,849.62)"
           d="m 100.19,84.077 c 0,11.996 -18.194,21.72 -40.637,21.72 -22.443,0 -40.637,-9.7243 -40.637,-21.72 0,-11.9957 18.194,-21.72 40.637,-21.72 22.443,0 40.637,9.7243 40.637,21.72 z"
           fill="url(#e)"
           fill-rule="evenodd"
           id="path2218"
           style="fill:url(#e)" /></g></g></g></svg>
